<?xml version="1.0" encoding="utf-8"?>
<!-- Generator: Adobe Illustrator 22.0.1, SVG Export Plug-In . SVG Version: 6.00 Build 0)  -->
<svg version="1.1" id="Layer_2" xmlns="http://www.w3.org/2000/svg" xmlns:xlink="http://www.w3.org/1999/xlink" x="0px" y="0px"
	 viewBox="0 0 900 900" style="enable-background:new 0 0 900 900;" xml:space="preserve">
<style type="text/css">
	.st0{fill:#FFFFFF;}
</style>
<g>
	<rect width="900" height="900"/>
	<g>
		<g>
			<g>
				
					<rect x="419.5" y="212" transform="matrix(-1.836970e-16 1 -1 -1.836970e-16 784.3347 -120.5243)" class="st0" width="65.8" height="239.8"/>
				
					<rect x="419.5" y="386" transform="matrix(-1.836970e-16 1 -1 -1.836970e-16 958.2795 53.4204)" class="st0" width="65.8" height="239.8"/>
				
					<rect x="419.5" y="299" transform="matrix(-1.836970e-16 1 -1 -1.836970e-16 871.3071 -33.552)" class="st0" width="65.8" height="239.8"/>
			</g>
			<path class="st0" d="M221.6,455.5c40.8-2.8,73-36.7,73-78.1v0c0-43.3-35.1-78.3-78.3-78.3h-68.7h-26.9H54.8v70.2h142.8
				c3.7,0,6.6,3,6.6,6.6v0c0,3.7-3,6.6-6.6,6.6H54.8v156.3h65.8v-88.4l88.4,88.4h95.5C306.3,538.8,219.8,455.6,221.6,455.5z"/>
			<path class="st0" d="M725.3,299H671h-65.8v65.8H671H687h39c28.6,0,51.8,23.2,51.8,51.8v0c0,28.6-23.2,51.8-51.8,51.8H671V386
				h-65.8v152.8H671h54.3c66.2,0,119.9-53.7,119.9-119.9v0C845.2,352.7,791.5,299,725.3,299z"/>
		</g>
		<g>
			<g>
				<path class="st0" d="M61.1,558.6h23.8v5.3H67.1v12.8h17.2v5.4H67.1v13h18.3v5.3H61.1V558.6z"/>
				<path class="st0" d="M193.3,583l-4.6-2.8c-2.9-1.7-4.9-3.5-6.1-5.2c-1.2-1.7-1.8-3.6-1.8-5.8c0-3.3,1.1-6,3.4-8
					c2.3-2.1,5.3-3.1,8.9-3.1c3.5,0,6.7,1,9.6,3v6.8c-3-2.9-6.3-4.4-9.8-4.4c-2,0-3.6,0.5-4.8,1.4c-1.3,0.9-1.9,2.1-1.9,3.5
					c0,1.3,0.5,2.4,1.4,3.5c0.9,1.1,2.4,2.2,4.5,3.5l4.6,2.7c5.1,3.1,7.7,6.9,7.7,11.7c0,3.4-1.1,6.1-3.4,8.2
					c-2.3,2.1-5.2,3.2-8.8,3.2c-4.1,0-7.9-1.3-11.3-3.8v-7.6c3.2,4.1,7,6.2,11.3,6.2c1.9,0,3.4-0.5,4.7-1.6c1.3-1,1.9-2.4,1.9-3.9
					C198.9,587.7,197,585.2,193.3,583z"/>
				<path class="st0" d="M301.9,600.5v-42h13.3c4,0,7.2,1.1,9.6,3.2c2.4,2.2,3.6,5.1,3.6,8.7c0,2.4-0.6,4.6-1.8,6.5
					c-1.2,1.9-2.9,3.2-5,4.1c-2.1,0.9-5.2,1.3-9.1,1.3h-4.4v18.2H301.9z M314.1,563.9h-6.2V577h6.6c2.4,0,4.3-0.6,5.6-1.7
					c1.3-1.2,2-2.8,2-4.9C322.1,566,319.5,563.9,314.1,563.9z"/>
				<path class="st0" d="M445.2,558c6.5,0,11.9,2.1,16.2,6.2c4.3,4.1,6.5,9.2,6.5,15.4c0,6.2-2.2,11.3-6.5,15.4
					c-4.4,4.1-9.8,6.1-16.5,6.1c-6.3,0-11.6-2-15.8-6.1c-4.2-4.1-6.3-9.1-6.3-15.2c0-6.3,2.1-11.5,6.4-15.6
					C433.4,560,438.8,558,445.2,558z M445.5,563.7c-4.8,0-8.7,1.5-11.8,4.5c-3.1,3-4.6,6.8-4.6,11.5c0,4.5,1.6,8.3,4.7,11.3
					c3.1,3,7,4.5,11.6,4.5c4.7,0,8.6-1.5,11.7-4.6c3.1-3.1,4.7-6.9,4.7-11.4c0-4.4-1.6-8.2-4.7-11.2
					C453.9,565.2,450,563.7,445.5,563.7z"/>
				<path class="st0" d="M566.6,600.5v-42h10.5c4.2,0,7.6,1.1,10.1,3.2c2.5,2.1,3.7,4.9,3.7,8.5c0,2.4-0.6,4.6-1.8,6.3
					c-1.2,1.8-3,3.1-5.3,4c1.3,0.9,2.7,2.1,3.9,3.6c1.3,1.5,3.1,4.2,5.4,8c1.5,2.4,2.6,4.2,3.5,5.4l2.2,3h-7.1l-1.8-2.8
					c-0.1-0.1-0.2-0.3-0.4-0.5l-1.2-1.7l-1.9-3.1l-2-3.3c-1.2-1.7-2.4-3.1-3.4-4.1c-1-1-2-1.8-2.8-2.2c-0.8-0.4-2.2-0.7-4.2-0.7
					h-1.6v18.3H566.6z M574.4,563.7h-1.8v13.2h2.3c3,0,5.1-0.3,6.3-0.8c1.1-0.5,2-1.3,2.6-2.4c0.6-1.1,0.9-2.2,0.9-3.6
					c0-1.3-0.4-2.5-1.1-3.6c-0.7-1.1-1.7-1.8-3-2.3C579.4,563.9,577.3,563.7,574.4,563.7z"/>
				<path class="st0" d="M685.5,558.5h35v5.3h-14.6v36.7h-6v-36.7h-14.4V558.5z"/>
				<path class="st0" d="M827.7,583l-4.6-2.8c-2.9-1.7-4.9-3.5-6.1-5.2c-1.2-1.7-1.8-3.6-1.8-5.8c0-3.3,1.1-6,3.4-8
					c2.3-2.1,5.3-3.1,8.9-3.1c3.5,0,6.7,1,9.6,3v6.8c-3-2.9-6.3-4.4-9.8-4.4c-2,0-3.6,0.5-4.8,1.4c-1.3,0.9-1.9,2.1-1.9,3.5
					c0,1.3,0.5,2.4,1.4,3.5c0.9,1.1,2.4,2.2,4.5,3.5l4.6,2.7c5.1,3.1,7.7,6.9,7.7,11.7c0,3.4-1.1,6.1-3.4,8.2
					c-2.3,2.1-5.2,3.2-8.8,3.2c-4.1,0-7.9-1.3-11.3-3.8v-7.6c3.2,4.1,7,6.2,11.3,6.2c1.9,0,3.4-0.5,4.7-1.6c1.3-1,1.9-2.4,1.9-3.9
					C833.2,587.7,831.4,585.2,827.7,583z"/>
			</g>
		</g>
	</g>
</g>
</svg>
